{"glyphs":{"0":{"ha":897,"x_min":0,"x_max":0,"o":"m 383 -17 b 100 505 149 -17 45 174 b 555 1024 154 834 324 1024 b 840 505 787 1024 895 833 b 383 -17 785 175 617 -17 m 405 115 b 689 505 542 115 647 252 b 534 895 730 756 670 895 b 252 505 398 895 293 756 b 405 115 210 252 269 115 "},"1":{"ha":656,"x_min":0,"x_max":0,"o":"m 417 0 l 264 0 l 406 857 l 400 857 l 133 699 l 157 845 l 436 1010 l 585 1010 "},"2":{"ha":852,"x_min":0,"x_max":0,"o":"m 53 110 l 453 465 b 660 733 581 580 645 644 b 509 897 677 834 612 897 b 297 717 400 897 316 826 l 152 717 b 533 1024 182 902 344 1024 b 805 737 724 1024 833 900 b 502 348 786 624 718 536 l 267 138 l 266 131 l 720 131 l 699 0 l 34 0 "},"3":{"ha":895,"x_min":0,"x_max":0,"o":"m 392 -14 b 75 263 184 -14 52 98 l 227 263 b 396 117 218 175 287 117 b 636 291 515 117 620 184 b 446 455 651 388 586 455 l 358 455 l 379 579 l 460 579 b 682 750 572 579 665 647 b 544 897 696 838 647 897 b 323 748 443 897 339 840 l 176 748 b 551 1024 206 911 370 1024 b 828 740 749 1024 852 890 b 616 524 809 627 727 551 l 616 517 b 787 268 744 497 808 397 b 392 -14 759 98 598 -14 "},"4":{"ha":908,"x_min":0,"x_max":0,"o":"m 66 321 l 617 1010 l 805 1010 l 691 327 l 826 327 l 804 197 l 670 197 l 637 0 l 492 0 l 524 197 l 46 197 m 630 829 l 622 829 l 228 334 l 228 327 l 547 327 "},"5":{"ha":861,"x_min":0,"x_max":0,"o":"m 365 -14 b 80 263 180 -14 60 103 l 228 263 b 386 114 221 177 290 114 b 622 324 503 114 601 202 b 450 538 642 447 571 538 b 273 480 389 538 318 514 l 137 501 l 279 1010 l 834 1010 l 813 879 l 384 879 l 305 597 l 311 597 b 506 664 357 636 431 664 b 769 327 690 664 802 521 b 365 -14 737 130 570 -14 "},"6":{"ha":883,"x_min":0,"x_max":0,"o":"m 394 -14 b 98 480 209 -13 35 104 b 563 1024 156 827 331 1024 b 851 748 741 1024 855 909 l 705 748 b 556 891 702 834 653 891 b 250 520 407 891 291 759 l 258 530 b 524 662 324 615 420 662 b 791 321 704 662 825 518 b 394 -14 759 132 600 -15 m 399 114 b 646 337 517 114 626 213 b 486 538 664 448 598 538 b 236 317 367 538 255 435 b 399 114 218 208 284 114 "},"7":{"ha":804,"x_min":0,"x_max":0,"o":"m 654 872 l 655 879 l 145 879 l 167 1010 l 835 1010 l 812 875 l 227 0 l 68 0 "},"8":{"ha":876,"x_min":0,"x_max":0,"o":"m 379 -14 b 61 276 164 -14 33 111 b 302 524 81 400 185 504 l 302 528 b 179 761 206 553 158 650 b 538 1024 207 914 355 1024 b 821 748 727 1024 847 906 b 615 528 802 636 716 551 l 615 524 b 778 263 726 502 800 393 b 379 -14 751 102 585 -14 m 389 111 b 628 285 518 111 611 182 b 457 459 644 389 572 459 b 216 273 335 459 233 381 b 389 111 200 174 266 111 m 466 581 b 673 748 572 581 656 650 b 530 899 690 843 632 899 b 323 735 421 899 339 834 b 466 581 307 640 368 581 "},"9":{"ha":883,"x_min":0,"x_max":0,"o":"m 533 1024 b 828 532 717 1022 891 908 b 364 -14 770 183 596 -14 b 75 264 184 -14 72 101 l 221 264 b 370 119 224 176 273 119 b 676 492 519 119 636 252 l 668 483 b 402 350 602 398 507 350 b 135 691 222 350 102 494 b 533 1024 168 880 326 1026 m 528 896 b 281 675 409 896 300 799 b 440 474 263 564 328 474 b 690 695 560 474 672 578 b 528 896 708 803 643 896 "},"A":{"ha":972,"x_min":0,"x_max":0,"o":"m -29 0 l 503 1010 l 679 1010 l 874 0 l 713 0 l 665 267 l 270 267 l 133 0 m 642 396 l 565 827 l 557 827 l 336 396 "},"Ä":{"ha":972,"x_min":0,"x_max":0,"o":"m -29 0 l 503 1010 l 679 1010 l 874 0 l 713 0 l 665 267 l 270 267 l 133 0 m 642 396 l 565 827 l 557 827 l 336 396 m 765 1129 b 686 1224 715 1129 677 1172 b 776 1301 693 1269 734 1301 b 857 1205 830 1301 865 1259 b 765 1129 850 1164 811 1129 m 475 1129 b 396 1224 425 1129 388 1174 b 486 1301 402 1269 444 1301 b 567 1205 540 1301 575 1259 b 475 1129 560 1164 521 1129 "},"B":{"ha":908,"x_min":0,"x_max":0,"o":"m 216 1010 l 585 1010 b 859 745 800 1010 885 894 b 655 532 838 618 750 555 l 653 522 b 822 272 752 516 847 428 b 435 0 796 117 670 0 l 48 0 m 442 131 b 672 279 588 131 657 194 b 502 454 687 375 624 454 l 276 454 l 222 131 m 500 573 b 708 733 603 573 693 636 b 555 880 723 817 676 880 l 347 880 l 296 573 "},"C":{"ha":1021,"x_min":0,"x_max":0,"o":"m 848 682 b 626 885 844 812 751 885 b 249 496 447 885 290 745 b 483 125 209 254 315 125 b 788 326 616 125 740 196 l 941 326 b 477 -14 874 125 694 -14 b 101 514 210 -14 47 187 b 631 1024 154 834 374 1024 b 999 682 848 1024 1000 898 "},"D":{"ha":1002,"x_min":0,"x_max":0,"o":"m 48 0 l 216 1010 l 548 1010 b 943 498 846 1010 996 816 b 379 0 892 186 687 0 m 386 133 b 796 516 617 133 756 272 b 526 877 836 749 747 877 l 346 877 l 222 133 "},"E":{"ha":837,"x_min":0,"x_max":0,"o":"m 216 1010 l 849 1010 l 827 879 l 346 879 l 295 571 l 743 571 l 721 440 l 273 440 l 222 131 l 709 131 l 687 0 l 48 0 "},"F":{"ha":814,"x_min":0,"x_max":0,"o":"m 216 1010 l 842 1010 l 820 879 l 346 879 l 295 571 l 724 571 l 702 440 l 273 440 l 200 0 l 48 0 "},"G":{"ha":1040,"x_min":0,"x_max":0,"o":"m 845 691 b 626 885 829 810 760 885 b 252 506 455 885 292 750 b 487 125 211 260 309 125 b 812 391 649 125 783 229 l 562 391 l 584 517 l 981 517 l 961 402 b 472 -14 920 146 718 -14 b 100 505 199 -14 47 185 b 637 1024 152 827 376 1024 b 1002 691 856 1024 1001 888 l 845 691 "},"H":{"ha":1031,"x_min":0,"x_max":0,"o":"m 216 1010 l 368 1010 l 295 571 l 799 571 l 872 1010 l 1024 1010 l 857 0 l 704 0 l 777 440 l 273 440 l 200 0 l 48 0 "},"I":{"ha":374,"x_min":0,"x_max":0,"o":"m 200 0 l 48 0 l 216 1010 l 368 1010 "},"J":{"ha":766,"x_min":0,"x_max":0,"o":"m 760 1010 l 641 291 b 290 -14 609 97 476 -14 b 28 253 115 -14 1 82 l 176 253 b 302 115 164 166 215 115 b 490 297 400 115 471 181 l 608 1010 "},"K":{"ha":923,"x_min":0,"x_max":0,"o":"m 216 1010 l 368 1010 l 289 528 l 301 528 l 804 1010 l 996 1010 l 514 555 l 830 0 l 646 0 l 396 451 l 254 314 l 200 0 l 48 0 "},"L":{"ha":784,"x_min":0,"x_max":0,"o":"m 216 1010 l 368 1010 l 222 131 l 680 131 l 658 0 l 48 0 "},"M":{"ha":1247,"x_min":0,"x_max":0,"o":"m 400 1010 l 593 225 l 605 225 l 1055 1010 l 1240 1010 l 1073 0 l 928 0 l 1050 731 l 1040 731 l 621 1 l 500 1 l 325 731 l 315 731 l 193 0 l 48 0 l 216 1010 "},"N":{"ha":1037,"x_min":0,"x_max":0,"o":"m 863 0 l 723 0 l 333 741 l 324 741 l 200 0 l 48 0 l 216 1010 l 357 1010 l 747 268 l 757 268 l 880 1010 l 1031 1010 "},"O":{"ha":1067,"x_min":0,"x_max":0,"o":"m 1008 495 b 478 -14 954 177 735 -14 b 101 514 211 -14 46 186 b 632 1024 154 833 374 1024 b 1008 495 897 1024 1062 823 m 859 514 b 626 885 900 756 795 885 b 249 495 447 885 290 746 b 483 125 208 254 314 125 b 859 514 662 125 818 263 "},"Ö":{"ha":1067,"x_min":0,"x_max":0,"o":"m 1008 495 b 478 -14 954 177 735 -14 b 101 514 211 -14 46 186 b 632 1024 154 833 374 1024 b 1008 495 897 1024 1062 823 m 859 514 b 626 885 900 756 795 885 b 249 495 447 885 290 746 b 483 125 208 254 314 125 b 859 514 662 125 818 263 m 811 1129 b 731 1224 761 1129 723 1172 b 822 1301 739 1269 780 1301 b 903 1205 876 1301 911 1259 b 811 1129 896 1164 857 1129 m 521 1129 b 441 1224 471 1129 434 1174 b 532 1301 448 1269 490 1301 b 613 1205 586 1301 621 1259 b 521 1129 606 1164 567 1129 "},"P":{"ha":886,"x_min":0,"x_max":0,"o":"m 216 1010 l 576 1010 b 871 683 810 1010 902 870 b 467 355 840 497 701 355 l 259 355 l 200 0 l 48 0 m 473 484 b 717 683 622 484 699 569 b 538 879 736 798 689 879 l 347 879 l 281 484 "},"Q":{"ha":1083,"x_min":0,"x_max":0,"o":"m 1008 495 b 789 95 978 320 898 182 l 926 -91 l 770 -91 l 682 30 b 478 -14 618 1 550 -14 b 101 514 211 -14 46 186 b 632 1024 154 833 374 1024 b 1008 495 897 1024 1062 823 m 618 327 l 705 210 b 859 514 781 275 837 378 b 626 885 900 756 795 885 b 249 495 447 885 290 746 b 483 125 208 254 314 125 b 600 146 524 125 563 133 l 468 327 "},"R":{"ha":899,"x_min":0,"x_max":0,"o":"m 216 1010 l 576 1010 b 873 693 810 1010 904 880 b 640 409 850 558 771 455 l 796 0 l 622 0 l 480 382 b 471 382 477 382 474 382 l 264 382 l 200 0 l 48 0 m 479 513 b 719 693 628 513 701 580 b 538 879 738 809 688 879 l 347 879 l 286 513 "},"S":{"ha":894,"x_min":0,"x_max":0,"o":"m 721 739 b 538 892 722 838 654 892 b 311 743 413 892 325 829 b 469 589 294 646 394 609 l 563 563 b 806 279 686 532 836 461 b 384 -17 777 108 621 -17 b 54 279 157 -17 34 96 l 208 279 b 404 117 197 169 287 117 b 655 281 534 117 639 182 b 489 435 671 370 593 406 l 375 467 b 156 734 220 511 134 593 b 563 1024 186 908 360 1024 b 868 739 768 1024 889 907 l 721 739 "},"T":{"ha":904,"x_min":0,"x_max":0,"o":"m 166 1010 l 947 1010 l 926 879 l 611 879 l 465 0 l 313 0 l 459 879 l 144 879 "},"U":{"ha":1024,"x_min":0,"x_max":0,"o":"m 1018 1010 l 908 346 b 446 -17 873 134 689 -17 b 106 346 204 -17 71 134 l 216 1010 l 368 1010 l 260 358 b 470 122 238 221 316 122 b 757 358 624 122 735 221 l 865 1010 "},"Ü":{"ha":1024,"x_min":0,"x_max":0,"o":"m 1018 1010 l 908 346 b 446 -17 873 134 689 -17 b 106 346 204 -17 71 134 l 216 1010 l 368 1010 l 260 358 b 470 122 238 221 316 122 b 757 358 624 122 735 221 l 865 1010 m 790 1129 b 711 1224 740 1129 702 1172 b 801 1301 718 1269 760 1301 b 882 1205 855 1301 890 1259 b 790 1129 875 1164 836 1129 m 500 1129 b 421 1224 450 1129 413 1174 b 511 1301 427 1269 470 1301 b 592 1205 565 1301 600 1259 b 500 1129 585 1164 546 1129 "},"V":{"ha":972,"x_min":0,"x_max":0,"o":"m 449 187 l 461 187 l 877 1010 l 1042 1010 l 511 0 l 335 0 l 139 1010 l 304 1010 "},"W":{"ha":1358,"x_min":0,"x_max":0,"o":"m 133 1010 l 293 1010 l 361 228 l 370 228 l 704 1010 l 863 1010 l 938 227 l 948 227 l 1273 1010 l 1434 1010 l 986 0 l 833 0 l 746 757 l 738 757 l 400 0 l 246 0 "},"X":{"ha":925,"x_min":0,"x_max":0,"o":"m 496 615 l 504 615 l 810 1010 l 989 1010 l 592 505 l 824 0 l 648 0 l 470 390 l 462 390 l 154 0 l -25 0 l 382 505 l 145 1010 l 319 1010 "},"Y":{"ha":951,"x_min":0,"x_max":0,"o":"m 311 1010 l 499 551 l 510 551 l 849 1010 l 1022 1010 l 554 397 l 488 0 l 336 0 l 402 397 l 138 1010 "},"Z":{"ha":887,"x_min":0,"x_max":0,"o":"m 39 102 l 699 879 l 163 879 l 185 1010 l 907 1010 l 891 908 l 230 131 l 765 131 l 744 0 l 22 0 "},"a":{"ha":791,"x_min":0,"x_max":0,"o":"m 254 -17 b 36 214 110 -17 12 66 b 364 440 65 386 218 424 b 568 509 502 457 558 456 l 568 512 b 449 648 581 598 544 648 b 252 543 351 648 283 596 l 119 574 b 465 767 190 712 327 767 b 714 503 585 767 750 724 l 630 0 l 486 0 l 504 104 l 498 104 b 254 -17 461 47 380 -17 m 305 102 b 528 273 428 102 513 183 l 545 371 b 356 330 520 350 404 337 b 181 212 269 319 193 291 b 305 102 169 139 221 102 "},"ä":{"ha":791,"x_min":0,"x_max":0,"o":"m 254 -17 b 36 214 110 -17 12 66 b 364 440 65 386 218 424 b 568 509 502 457 558 456 l 568 512 b 449 648 581 598 544 648 b 252 543 351 648 283 596 l 119 574 b 465 767 190 712 327 767 b 714 503 585 767 750 724 l 630 0 l 486 0 l 504 104 l 498 104 b 254 -17 461 47 380 -17 m 305 102 b 528 273 428 102 513 183 l 545 371 b 356 330 520 350 404 337 b 181 212 269 319 193 291 b 305 102 169 139 221 102 m 643 876 b 563 972 593 876 554 920 b 654 1049 571 1016 612 1049 b 734 953 708 1049 743 1007 b 643 876 728 912 689 876 m 353 876 b 273 972 303 876 265 921 b 364 1049 280 1016 322 1049 b 444 953 418 1049 453 1007 b 353 876 438 912 399 876 "},"b":{"ha":869,"x_min":0,"x_max":0,"o":"m 216 1010 l 363 1010 l 301 635 l 310 635 b 550 767 344 682 409 767 b 803 377 733 767 843 623 b 421 -15 763 132 605 -15 b 224 118 283 -15 244 70 l 212 118 l 192 0 l 48 0 m 255 379 b 409 111 230 219 283 111 b 654 379 542 111 628 227 b 497 642 678 529 630 642 b 255 379 368 642 281 537 "},"c":{"ha":789,"x_min":0,"x_max":0,"o":"m 353 -15 b 65 375 133 -15 27 147 b 482 767 102 607 268 767 b 752 513 654 767 761 666 l 609 513 b 463 643 605 584 557 643 b 214 379 339 643 240 541 b 375 109 186 214 250 109 b 563 240 459 109 531 158 l 707 240 b 353 -15 664 92 532 -15 "},"ç":{"ha":789,"x_min":0,"x_max":0,"o":"m 391 -36 b 477 -154 447 -45 491 -80 b 228 -304 464 -244 374 -304 l 240 -221 b 365 -159 308 -221 357 -203 b 272 -94 373 -115 344 -101 l 303 -12 b 65 375 117 11 30 165 b 482 767 102 607 268 767 b 752 513 654 767 761 666 l 609 513 b 463 643 605 584 557 643 b 214 379 339 643 240 541 b 375 109 186 214 250 109 b 563 240 459 109 531 158 l 707 240 b 400 -13 668 106 555 4 "},"d":{"ha":870,"x_min":0,"x_max":0,"o":"m 319 -15 b 66 377 134 -15 26 132 b 449 767 107 623 266 767 b 645 635 590 767 626 682 l 653 635 l 716 1010 l 863 1010 l 695 0 l 551 0 l 572 118 l 559 118 b 319 -15 524 70 456 -15 m 368 111 b 614 379 496 111 587 219 b 456 642 640 537 585 642 b 216 379 323 642 240 529 b 368 111 190 227 237 111 "},"e":{"ha":818,"x_min":0,"x_max":0,"o":"m 361 -15 b 65 374 137 -15 26 139 b 480 767 104 607 269 767 b 753 387 653 767 799 660 l 744 334 l 205 334 b 382 107 179 170 249 107 b 575 215 468 107 536 143 l 710 189 b 361 -15 656 66 526 -15 m 617 445 b 461 646 636 561 576 646 b 223 445 346 646 245 544 "},"f":{"ha":513,"x_min":0,"x_max":0,"o":"m 504 639 l 339 639 l 233 0 l 85 0 l 192 639 l 75 639 l 95 758 l 212 758 l 227 845 b 486 1057 249 987 366 1057 b 605 1037 545 1057 587 1045 l 551 918 b 488 929 538 922 518 929 b 370 826 416 929 382 893 l 359 758 l 523 758 "},"g":{"ha":857,"x_min":0,"x_max":0,"o":"m 306 -300 b 11 -128 124 -300 36 -221 l 147 -76 b 325 -181 167 -119 201 -181 b 548 -11 436 -181 529 -129 l 572 138 l 562 138 b 323 11 529 90 462 11 b 68 382 144 11 27 140 b 449 767 107 623 266 767 b 646 635 590 767 628 682 l 657 635 l 677 758 l 822 758 l 693 -17 b 306 -300 662 -212 498 -300 m 373 134 b 615 384 500 134 589 227 b 456 642 640 537 584 642 b 217 384 322 642 241 529 b 373 134 192 235 241 134 "},"h":{"ha":836,"x_min":0,"x_max":0,"o":"m 184 0 l 36 0 l 204 1010 l 350 1010 l 288 634 l 297 634 b 544 767 345 717 425 767 b 756 482 699 767 787 671 l 675 0 l 528 0 l 605 464 b 472 640 623 575 573 640 b 258 450 367 640 279 571 "},"i":{"ha":346,"x_min":0,"x_max":0,"o":"m 162 758 l 310 758 l 183 0 l 36 0 m 266 876 b 178 964 216 876 175 915 b 275 1052 180 1013 223 1052 b 363 964 326 1052 366 1013 b 266 876 362 915 318 876 "},"j":{"ha":346,"x_min":0,"x_max":0,"o":"m 310 758 l 176 -49 b -105 -284 150 -201 52 -284 b -134 -284 -114 -284 -124 -284 l -113 -157 l -89 -157 b 29 -48 -20 -157 16 -118 l 162 758 m 263 874 b 175 962 213 874 172 914 b 272 1051 177 1011 220 1051 b 361 962 323 1051 363 1011 b 263 874 359 914 315 874 "},"k":{"ha":773,"x_min":0,"x_max":0,"o":"m 204 1010 l 351 1010 l 256 437 l 268 437 l 624 758 l 801 758 l 440 432 l 695 0 l 514 0 l 314 342 l 228 269 l 183 0 l 36 0 "},"l":{"ha":346,"x_min":0,"x_max":0,"o":"m 183 0 l 36 0 l 204 1010 l 351 1010 "},"m":{"ha":1227,"x_min":0,"x_max":0,"o":"m 163 758 l 304 758 l 284 634 l 293 634 b 522 767 339 718 422 767 b 703 634 621 767 684 717 l 711 634 b 961 767 760 716 851 767 b 1151 508 1097 767 1180 681 l 1066 0 l 918 0 l 1001 494 b 883 640 1017 597 961 640 b 706 483 787 640 721 575 l 624 0 l 478 0 l 562 504 b 446 640 575 586 528 640 b 262 467 362 640 278 569 l 184 0 l 36 0 "},"n":{"ha":830,"x_min":0,"x_max":0,"o":"m 184 0 l 36 0 l 163 758 l 304 758 l 284 634 l 293 634 b 539 767 341 715 425 767 b 750 482 692 767 781 670 l 669 0 l 521 0 l 599 464 b 467 640 617 574 568 640 b 258 450 364 640 280 571 "},"o":{"ha":836,"x_min":0,"x_max":0,"o":"m 359 -15 b 66 382 142 -15 27 144 b 476 767 103 615 265 767 b 769 369 692 767 807 608 b 359 -15 731 138 569 -15 m 367 109 b 623 382 509 109 599 233 b 468 644 646 524 603 644 b 212 369 326 644 235 518 b 367 109 188 227 231 109 "},"ö":{"ha":836,"x_min":0,"x_max":0,"o":"m 359 -15 b 66 382 142 -15 27 144 b 476 767 103 615 265 767 b 769 369 692 767 807 608 b 359 -15 731 138 569 -15 m 367 109 b 623 382 509 109 599 233 b 468 644 646 524 603 644 b 212 369 326 644 235 518 b 367 109 188 227 231 109 m 654 876 b 575 972 605 876 566 920 b 666 1049 582 1016 624 1049 b 746 953 720 1049 755 1007 b 654 876 740 912 701 876 m 364 876 b 285 972 315 876 277 921 b 376 1049 291 1016 334 1049 b 456 953 430 1049 465 1007 b 364 876 450 912 411 876 "},"p":{"ha":858,"x_min":0,"x_max":0,"o":"m 164 758 l 308 758 l 288 635 l 300 635 b 540 767 333 682 398 767 b 793 377 722 767 833 623 b 410 -15 752 132 594 -15 b 214 118 272 -15 232 70 l 205 118 l 138 -284 l -11 -284 m 245 379 b 399 111 219 219 272 111 b 643 379 530 111 617 227 b 487 642 667 529 619 642 b 245 379 358 642 270 537 "},"q":{"ha":857,"x_min":0,"x_max":0,"o":"m 566 118 l 558 118 b 317 -15 523 70 455 -15 b 65 377 133 -15 25 132 b 447 767 106 623 264 767 b 643 635 588 767 625 682 l 655 635 l 676 758 l 820 758 l 648 -284 l 500 -284 m 370 111 b 613 379 498 111 586 219 b 459 642 639 537 587 642 b 214 379 325 642 239 529 b 370 111 189 227 239 111 "},"r":{"ha":536,"x_min":0,"x_max":0,"o":"m 162 758 l 305 758 l 285 637 l 292 637 b 507 769 333 719 418 769 b 569 765 526 769 554 768 l 545 624 b 469 633 534 628 500 633 b 259 463 365 633 277 562 l 183 0 l 36 0 "},"s":{"ha":744,"x_min":0,"x_max":0,"o":"m 562 549 b 429 651 553 601 521 651 b 263 547 344 651 273 608 b 364 451 255 499 285 471 l 480 424 b 655 216 615 392 673 325 b 310 -15 632 80 491 -15 b 35 194 137 -15 37 61 l 181 216 b 322 104 186 142 235 104 b 502 211 420 103 493 151 b 411 305 510 258 483 288 l 289 333 b 115 546 152 365 97 437 b 442 767 138 679 273 767 b 699 573 608 767 688 691 "},"t":{"ha":516,"x_min":0,"x_max":0,"o":"m 497 639 l 340 639 l 271 222 b 346 121 257 137 298 121 b 398 128 369 121 388 126 l 406 6 b 306 -10 386 0 353 -9 b 119 192 189 -12 96 55 l 193 639 l 83 639 l 102 758 l 213 758 l 243 939 l 390 939 l 360 758 l 516 758 "},"u":{"ha":826,"x_min":0,"x_max":0,"o":"m 642 758 l 790 758 l 664 0 l 519 0 l 541 131 l 533 131 b 283 -10 486 50 397 -10 b 81 276 137 -10 51 88 l 162 758 l 310 758 l 232 293 b 359 124 216 190 268 124 b 568 314 442 124 547 185 "},"ü":{"ha":826,"x_min":0,"x_max":0,"o":"m 642 758 l 790 758 l 664 0 l 519 0 l 541 131 l 533 131 b 283 -10 486 50 397 -10 b 81 276 137 -10 51 88 l 162 758 l 310 758 l 232 293 b 359 124 216 190 268 124 b 568 314 442 124 547 185 m 650 876 b 570 972 600 876 561 920 b 661 1049 578 1016 619 1049 b 741 953 715 1049 750 1007 b 650 876 735 912 696 876 m 360 876 b 280 972 310 876 272 921 b 371 1049 287 1016 329 1049 b 451 953 425 1049 460 1007 b 360 876 445 912 406 876 "},"v":{"ha":787,"x_min":0,"x_max":0,"o":"m 409 0 l 252 0 l 103 758 l 255 758 l 350 175 l 358 175 l 646 758 l 810 758 "},"w":{"ha":1146,"x_min":0,"x_max":0,"o":"m 104 758 l 256 758 l 312 201 l 319 201 l 561 758 l 713 758 l 768 204 l 776 204 l 1016 758 l 1168 758 l 820 0 l 669 0 l 606 547 l 595 547 l 350 0 l 200 0 "},"x":{"ha":765,"x_min":0,"x_max":0,"o":"m 397 463 l 615 758 l 776 758 l 476 379 l 652 0 l 490 0 l 367 283 l 149 0 l -12 0 l 287 379 l 117 758 l 279 758 "},"y":{"ha":787,"x_min":0,"x_max":0,"o":"m 83 -284 b -16 -268 38 -284 1 -276 l 40 -147 b 223 -57 118 -169 168 -157 l 251 -7 l 103 758 l 254 758 l 348 168 l 356 168 l 646 758 l 810 758 l 356 -100 b 83 -284 291 -222 203 -284 "},"z":{"ha":766,"x_min":0,"x_max":0,"o":"m 38 101 l 534 622 l 536 629 l 139 629 l 160 758 l 741 758 l 724 650 l 244 135 l 242 128 l 650 128 l 629 0 l 21 0 "},"$":{"ha":894,"x_min":0,"x_max":0,"o":"m 344 -16 b 54 279 143 -3 35 107 l 208 279 b 366 119 198 182 268 129 l 422 454 l 375 467 b 156 734 220 511 134 593 b 516 1022 184 895 334 1006 l 535 1136 l 616 1136 l 597 1023 b 868 739 781 1011 888 897 l 721 739 b 575 890 722 827 668 879 l 522 574 l 563 563 b 806 279 686 532 836 461 b 425 -15 778 118 639 -2 l 406 -126 l 326 -126 m 447 119 b 655 281 557 132 641 193 b 499 432 670 367 598 403 l 447 119 m 494 889 b 311 743 393 876 323 819 b 445 595 295 656 374 617 "},"£":{"ha":895,"x_min":0,"x_max":0,"o":"m 30 0 l 52 131 l 100 131 b 188 282 154 134 181 225 l 204 396 l 92 396 l 115 527 l 221 527 l 246 711 b 603 1024 272 918 439 1024 b 848 727 797 1024 903 883 l 710 750 b 587 895 735 846 667 895 b 392 711 503 895 414 837 l 368 527 l 602 527 l 579 396 l 351 396 l 337 286 b 272 131 329 224 310 171 l 742 131 l 721 0 "},"€":{"ha":933,"x_min":0,"x_max":0,"o":"m 715 554 l 342 554 b 332 505 339 539 335 522 b 326 456 329 488 327 472 l 656 456 l 592 353 l 324 353 b 543 126 337 202 421 126 b 763 206 629 126 705 165 l 800 82 b 519 -14 721 19 620 -14 b 172 353 313 -14 180 122 l 33 353 l 86 456 l 176 456 b 182 505 178 472 180 488 b 192 554 185 521 188 538 l 67 554 l 120 656 l 221 656 b 690 1024 305 887 484 1024 b 942 924 796 1024 882 988 l 865 799 b 668 884 818 846 754 884 b 374 656 546 884 437 807 l 778 656 "},"&":{"ha":904,"x_min":0,"x_max":0,"o":"m 328 -14 b 48 268 125 -14 21 106 b 288 543 67 389 159 463 b 217 782 237 620 202 692 b 510 1021 239 922 357 1021 b 725 801 666 1021 745 919 b 552 573 709 705 646 635 l 475 522 l 637 281 b 708 459 672 331 697 391 l 841 459 b 711 171 818 317 763 228 l 825 0 l 658 0 l 604 80 b 328 -14 525 16 419 -14 m 355 443 l 326 424 b 195 272 237 365 200 303 b 350 110 181 185 240 110 b 537 177 412 110 478 134 m 479 664 b 589 797 540 700 578 737 b 492 898 596 844 561 898 b 354 780 422 898 363 839 b 410 620 346 728 374 677 "},"!":{"ha":408,"x_min":0,"x_max":0,"o":"m 257 291 l 121 291 l 227 1010 l 390 1010 m 153 -9 b 58 89 98 -9 57 35 b 159 186 58 144 106 186 b 255 89 213 186 257 142 b 153 -9 253 35 206 -9 "},"?":{"ha":730,"x_min":0,"x_max":0,"o":"m 248 305 b 443 595 280 484 344 539 b 574 757 508 632 563 683 b 447 900 588 844 531 900 b 266 749 372 900 289 854 l 116 749 b 467 1024 152 927 301 1024 b 725 755 648 1024 752 915 b 543 516 707 644 640 569 b 390 305 451 466 409 415 l 387 291 l 246 291 m 284 -9 b 188 89 228 -9 187 35 b 290 186 188 144 236 186 b 385 89 343 186 388 142 b 284 -9 383 35 336 -9 "},"(":{"ha":525,"x_min":0,"x_max":0,"o":"m 149 419 b 444 1048 190 666 290 872 l 580 1048 b 302 419 461 918 341 654 b 371 -210 262 184 295 -80 l 236 -210 b 149 419 141 -35 108 172 "},")":{"ha":525,"x_min":0,"x_max":0,"o":"m 389 419 b 94 -210 348 172 249 -35 l -41 -210 b 236 419 77 -80 197 184 b 167 1048 276 654 243 918 l 302 1048 b 389 419 398 872 431 666 "},"[":{"ha":525,"x_min":0,"x_max":0,"o":"m 269 1048 l 593 1048 l 574 931 l 391 931 l 221 -93 l 404 -93 l 385 -210 l 60 -210 "},"]":{"ha":525,"x_min":0,"x_max":0,"o":"m 269 -210 l -55 -210 l -36 -93 l 147 -93 l 317 931 l 134 931 l 153 1048 l 478 1048 "},"{":{"ha":525,"x_min":0,"x_max":0,"o":"m 385 -210 b 144 58 189 -210 111 -144 l 167 200 b 43 348 184 306 155 348 l 41 348 l 65 490 l 67 490 b 241 638 178 490 224 532 l 264 780 b 593 1048 296 982 398 1048 l 574 931 b 401 772 459 931 418 882 l 370 593 b 191 427 358 514 320 451 l 188 411 b 314 245 308 387 326 324 l 283 66 b 404 -93 265 -44 289 -93 l 385 -210 "},"}":{"ha":525,"x_min":0,"x_max":0,"o":"m 153 1048 b 394 780 349 1048 427 981 l 371 638 b 495 490 354 532 383 490 l 497 490 l 473 348 l 472 348 b 297 200 360 348 314 306 l 274 58 b -55 -210 242 -144 141 -210 l -36 -93 b 137 66 79 -93 120 -44 l 168 245 b 347 411 180 324 218 387 l 350 427 b 224 593 230 451 212 514 l 255 772 b 134 931 273 882 249 931 l 153 1048 "},"#":{"ha":885,"x_min":0,"x_max":0,"o":"m 539 270 l 302 270 l 253 0 l 135 0 l 184 270 l 37 270 l 59 389 l 205 389 l 248 621 l 102 621 l 123 740 l 269 740 l 318 1010 l 436 1010 l 387 740 l 624 740 l 673 1010 l 792 1010 l 742 740 l 889 740 l 868 621 l 721 621 l 679 389 l 824 389 l 802 270 l 657 270 l 608 0 l 490 0 m 560 389 l 603 621 l 366 621 l 324 389 "},"/":{"ha":510,"x_min":0,"x_max":0,"o":"m 72 -152 l -60 -152 l 465 1057 l 596 1057 "},"\\":{"ha":508,"x_min":0,"x_max":0,"o":"m 139 1057 l 267 1057 l 393 -152 l 264 -152 "},"-":{"ha":643,"x_min":0,"x_max":0,"o":"m 543 363 l 95 363 l 116 491 l 564 491 "},"'":{"ha":302,"x_min":0,"x_max":0,"o":"m 256 651 l 134 651 l 193 1010 l 316 1010 "},"\"":{"ha":555,"x_min":0,"x_max":0,"o":"m 256 651 l 134 651 l 193 1010 l 316 1010 m 510 651 l 388 651 l 447 1010 l 569 1010 "},",":{"ha":400,"x_min":0,"x_max":0,"o":"m 234 84 b 90 -247 199 -34 123 -182 l -15 -247 b 95 83 7 -186 62 -51 l 109 138 l 252 138 "},".":{"ha":393,"x_min":0,"x_max":0,"o":"m 145 -9 b 50 89 90 -9 49 35 b 151 186 50 144 98 186 b 247 89 205 186 250 142 b 145 -9 245 35 198 -9 "},":":{"ha":393,"x_min":0,"x_max":0,"o":"m 237 542 b 141 641 181 542 140 586 b 243 737 142 695 189 737 b 338 641 296 737 341 693 b 237 542 336 586 290 542 m 145 -9 b 50 89 90 -9 49 35 b 151 186 50 144 98 186 b 247 89 205 186 250 142 b 145 -9 245 35 198 -9 "},";":{"ha":400,"x_min":0,"x_max":0,"o":"m 234 84 b 90 -247 199 -34 123 -182 l -15 -247 b 95 83 7 -186 62 -51 l 109 138 l 252 138 m 240 542 b 145 641 184 542 144 586 b 246 737 145 695 192 737 b 342 641 299 737 344 693 b 240 542 339 586 293 542 "},"<":{"ha":925,"x_min":0,"x_max":0,"o":"m 147 453 l 854 770 l 830 620 l 314 401 l 313 393 l 757 176 l 731 25 l 128 342 "},">":{"ha":925,"x_min":0,"x_max":0,"o":"m 96 25 l 121 176 l 635 394 l 636 402 l 195 620 l 219 770 l 822 453 l 803 342 "},"=":{"ha":925,"x_min":0,"x_max":0,"o":"m 185 615 l 818 615 l 796 485 l 164 485 m 135 311 l 767 311 l 746 181 l 113 181 "},"+":{"ha":925,"x_min":0,"x_max":0,"o":"m 388 331 l 121 331 l 143 464 l 410 464 l 454 731 l 587 731 l 544 464 l 810 464 l 788 331 l 521 331 l 477 64 l 344 64 "},"~":{"ha":925,"x_min":0,"x_max":0,"o":"m 97 291 b 335 539 122 463 224 539 b 508 449 401 539 446 512 b 604 394 547 411 569 394 b 711 512 658 394 699 434 l 836 512 b 597 269 811 341 707 269 b 425 358 530 269 487 296 b 327 409 386 398 363 409 b 221 291 277 409 234 376 l 97 291 "},"_":{"ha":639,"x_min":0,"x_max":0,"o":"m 557 -125 l -85 -125 l -65 0 l 577 0 "},"^":{"ha":660,"x_min":0,"x_max":0,"o":"m 356 981 l 502 981 l 637 552 l 511 552 l 418 865 l 411 865 l 218 552 l 82 552 "},"*":{"ha":725,"x_min":0,"x_max":0,"o":"m 364 650 l 171 537 l 133 631 l 332 726 l 161 821 l 230 915 l 388 802 l 413 1010 l 520 1010 l 476 802 l 668 915 l 708 821 l 508 726 l 680 631 l 610 537 l 452 650 l 426 442 l 319 442 "},"°":{"ha":634,"x_min":0,"x_max":0,"o":"m 384 553 b 152 786 256 553 152 657 b 384 1017 152 914 256 1017 b 616 786 512 1017 616 914 b 384 553 616 657 512 553 m 384 666 b 504 786 450 666 504 720 b 384 905 504 852 450 905 b 264 786 318 905 264 852 b 384 666 264 720 318 666 "},"§":{"ha":785,"x_min":0,"x_max":0,"o":"m 577 767 b 473 896 589 841 558 896 b 340 801 397 896 349 850 b 422 678 330 746 381 701 l 597 574 b 707 353 643 546 733 482 b 546 189 691 277 614 209 l 545 187 b 592 19 588 143 603 86 b 291 -205 568 -130 433 -205 b 52 55 126 -205 26 -105 l 190 55 b 313 -76 176 -30 228 -77 b 455 19 378 -76 444 -45 b 374 143 466 86 414 118 l 373 143 l 201 245 b 88 468 152 273 64 338 b 250 633 103 543 176 613 l 250 636 b 203 801 214 680 192 734 b 495 1024 225 930 346 1024 b 713 767 654 1024 737 917 m 576 350 b 508 465 586 399 554 438 l 341 565 b 218 471 304 587 231 540 b 289 354 209 417 243 382 l 450 259 b 576 350 485 238 565 282 "},"%":{"ha":1150,"x_min":0,"x_max":0,"o":"m 189 821 b 430 1031 206 935 298 1031 b 599 821 564 1031 616 935 l 591 767 b 352 557 575 653 484 557 b 182 767 219 557 165 653 m 603 243 b 843 453 624 356 712 453 b 1013 243 977 453 1034 357 l 1003 189 b 764 -21 982 76 896 -21 b 593 189 630 -21 572 76 m 959 1010 l 1084 1010 l 221 0 l 97 0 m 708 189 b 780 78 697 133 713 78 b 888 189 846 78 877 133 l 898 243 b 827 354 908 299 895 354 b 718 243 762 354 728 299 m 297 767 b 368 656 288 710 302 656 b 476 767 435 656 468 710 l 484 821 b 413 932 492 877 481 932 b 305 821 348 932 313 877 "},"`":{"ha":690,"x_min":0,"x_max":0,"o":"m 327 1086 l 483 1086 l 559 859 l 441 859 "}}}
